<svg xmlns="http://www.w3.org/2000/svg" id="Layer_1" viewBox="0 0 80 80"><defs><style> .st0 { fill: #104880; } .st1 { fill: #104880; } </style></defs><g><polygon class="st1" points="31.2 17.1 29.9 56.4 28.6 15.7 28.6 15.1 28.8 15.2 31.2 17.1"> </polygon><polygon class="st1" points="20.1 15 20.1 15.7 18.8 56.4 17.5 17.1 20.1 15"> </polygon><polygon class="st1" points="25.7 12.8 24.3 56.4 23 12.8 24.3 11.8 25.7 12.8"> </polygon><polygon class="st1" points="62.5 17.1 61.2 56.4 59.8 15.7 59.8 15.1 60.1 15.2 62.5 17.1"> </polygon><polygon class="st1" points="51.4 15 51.4 15.7 50 56.4 48.7 17.1 51.4 15"> </polygon><polygon class="st1" points="56.9 12.8 55.6 56.4 54.3 12.8 55.6 11.8 56.9 12.8"> </polygon><polygon class="st1" points="46.9 7.7 45.5 57.7 44.2 6.3 44.2 5.6 44.4 5.8 46.9 7.7"> </polygon><polygon class="st1" points="35.8 5.6 35.8 6.3 34.4 57.7 33.1 7.7 35.8 5.6"> </polygon><polygon class="st1" points="41.3 3.4 40 57.7 38.6 3.4 40 2.3 41.3 3.4"> </polygon><g><path class="st1" d="M45.7,75.3c0-.4.3-.6.6-.6s.5.2.5.4c-.2,0-.3.2-.3.4,0,.4.3.7,1,.7s1-.3,1-.7c0-1.3-2.6-1.4-2.6-2.7s.7-1.3,1.7-1.3,1.4.4,1.4,1-.2.6-.5.6-.4-.1-.5-.4c.2-.1.3-.2.3-.5,0-.4-.3-.6-.8-.6s-1,.3-1,.7c0,1,2.7,1.1,2.7,2.7s-.7,1.4-1.8,1.4-1.6-.6-1.6-1.1Z"></path><path class="st1" d="M53.9,76.2h0c0,.1-1.9.1-1.9.1h0c0-.1.5-.2.5-.2l-.4-1.3h-1.5l-.4,1.3h.5v.2h-1.2c0-.1.4-.2.4-.2l1.7-4.6h.3l1.6,4.6h.4ZM52,74.6l-.7-2-.7,2h1.4Z"></path><path class="st1" d="M58.6,71.8v4.3h.6v.2h-2.1c0-.1.6-.2.6-.2v-2h-2v2h.6v.2h-2.1c0-.1.6-.2.6-.2v-4.3h-.6v-.2h2.1c0,.1-.6.2-.6.2v2.1h2v-2.1h-.6v-.2h2.1c0,.1-.6.2-.6.2Z"></path><path class="st1" d="M65.6,76.2h0c0,.1-2.1.1-2.1.1h0c0-.1.6-.3.6-.3v-3.9c-.1,0-1.8,4.3-1.8,4.3h-.2l-1.7-4.2-.2,3.8h.6v.3h-1.5c0-.1.6-.3.6-.3l.2-4.3h-.6v-.3h1.5l1.5,3.7,1.4-3.7h1.4c0,.1-.6.2-.6.2v4.3h.8Z"></path></g><g><path class="st1" d="M25,68.4c-1.5,0-2.7-.9-3.5-2.6-.1-.4-.2-.8-.2-1.2v-3c-1.6.3-2.4,1-2.5,2.1v12.8c-1.2-.5-1.9-1.3-1.9-2.3v-11.5c.9-1.8,2.2-2.7,3.8-2.9h8.6v6.6h.9v2h-5.2ZM27.3,61.7h-4.2v2.5c0,1.5.6,2.2,1.9,2.2h1.3c.5,0,.8-.3,1-.8v-4Z"></path><path class="st1" d="M46.3,64.3c.1,1.4.8,2.1,2,2.2v2h0c-.9,0-1.9-.4-2.8-1.3-.9.9-1.9,1.3-2.8,1.3h-7.2c-.4,0-.8,0-1.1-.2-.5-.2-1-.6-1.7-1.1-.9.9-1.9,1.3-2.8,1.3h0v-2c1.2,0,1.8-.8,2-2.2v-.8c0-.4,0-.8.2-1.1.9-1.7,2-2.6,3.5-2.6h7.2c.4,0,.8,0,1.1.2,1.7.9,2.6,2,2.6,3.5v.8ZM33.6,63.6v1.2c.2,1.1,1,1.7,2.4,1.7h2.1v-4.8h-1.8c-1.8,0-2.6.6-2.6,1.9M40,66.4h2.3c1.4-.1,2-.8,2-1.9v-1c0-1.3-.9-1.9-2.6-1.9h-1.7v4.8Z"></path><path class="st1" d="M63.2,67.2c-.5.4-1,.8-1.5,1-.4.2-.8.2-1.2.2h-.6c-.8,0-1.6-.4-2.7-1.2h-.2c-1,.8-1.9,1.2-2.7,1.2h-.6c-.9,0-1.9-.4-2.8-1.3-1,.9-1.9,1.3-2.8,1.3h-.4v-2h.2c1.3,0,1.9-.9,1.9-2.7v-4h2v4.6c0,1,.7,1.7,2,2,1.4-.3,2.1-1,2.1-2.1v-4.4h2.1v4.1c0,1.4.6,2.2,1.8,2.4h.5c1.3-.2,1.9-1,1.9-2.3v-4.2h2v4.4c0,1.3-.4,2.3-1.2,3"></path></g><path class="st1" d="M22,75.6c-1.2,0-1.6-.5-1.6-1.4s.5-1.5,1.6-1.5,1.2.2,1.2.2v2.1h.6v.6h-1.8ZM21,71.9c0-.2.2-.4.4-.4s.4.2.4.4-.2.4-.4.4-.4-.2-.4-.4ZM22.4,73.4s-.2-.1-.6-.1-.7.3-.7.8.3.8.9.8h.4v-1.5ZM22,71.9c0-.2.2-.4.4-.4s.4.2.4.4-.2.4-.4.4-.4-.2-.4-.4ZM23.7,75h1.1v-2.2h.8v2.8h-1.9v-.6ZM24.2,76.9c-.2,0-.4-.2-.4-.4s.2-.4.4-.4.4.2.4.4-.2.4-.4.4ZM25.2,76.9c-.2,0-.4-.2-.4-.4s.2-.4.4-.4.4.2.4.4-.2.4-.4.4ZM25.6,77.1v-.6c.2,0,.4,0,.5,0,.4,0,.6-.2.6-.8v-2.9h.8v2.8c0,.8-.3,1.5-1.5,1.5s-.4,0-.5,0ZM28.6,71.4h.8v3.6h.6v.6h-1.4v-4.2ZM29.9,75h.7v.6h-.7v-.6ZM30.5,75h.7v.6h-.7v-.6ZM31.2,75h.7v.6h-.7v-.6ZM31.8,75h.3c.2,0,.4,0,.4,0-.2-.2-.3-.5-.3-.8,0-.9.6-1.5,1.5-1.5s1.4.4,1.4,1.4-.1.7-.3.9c0,0,.3,0,.5,0h.3v.6h-3.7v-.6ZM32.7,71.9c0-.2.2-.4.4-.4s.4.2.4.4-.2.4-.4.4-.4-.2-.4-.4ZM34.3,74.1c0-.5-.2-.8-.7-.8s-.7.2-.7.8.2.8.7.8.7-.3.7-.8ZM33.7,71.9c0-.2.2-.4.4-.4s.4.2.4.4-.2.4-.4.4-.4-.2-.4-.4ZM35.4,75h.7v.6h-.7v-.6ZM36,75h.7v.6h-.7v-.6ZM36.7,75h.2c.6,0,1,0,1.4-.2-.4-.4-.7-.7-1.3-.9v-.6c.5-.3,1.2-.7,1.8-.7.9,0,1.3.5,1.3,1s-.2.8-.6,1.1c.2,0,.4.2.7.2h.4v.6h-.5c-.5,0-.9-.2-1.2-.4-.5.2-1.2.4-2,.4h-.2v-.6ZM38.9,74.5c.3-.2.4-.4.4-.7s-.2-.5-.6-.5-.7.2-.9.4c.4.2.7.5,1.1.8ZM40.4,75h.7v-3.6h.8v4.2h-1.5v-.6ZM43,71.4h.8v4.2h-.8v-4.2Z"></path></g></svg>